squats_1_grf
version=1
nRows=34
nColumns=19
inDegrees=no
endheader
time	ground_force_left_vx	ground_force_left_vy	ground_force_left_vz	ground_force_left_px	ground_force_left_py	ground_force_left_pz	ground_force_left_mx	ground_force_left_my	ground_force_left_mz	ground_force_right_vx	ground_force_right_vy	ground_force_right_vz	ground_force_right_px	ground_force_right_py	ground_force_right_pz	ground_force_right_mx	ground_force_right_my	ground_force_right_mz
     22.44500000	    -11.71646588	    406.10904467	     -8.42665315	     -2.30638616	      0.01006560	      2.26886432	      0.01432479	     -7.30590177	      0.01826926	     -4.58408925	    442.39461956	      7.23116928	     -2.29341007	      0.01043880	      2.70594856	     -0.00904544	      7.32912605	      0.02190038
     22.44600000	    -11.68235725	    406.02466303	     -8.40494056	     -2.30646760	      0.01006547	      2.26887734	      0.01429740	     -7.29193260	      0.01823433	     -4.55472137	    442.41903646	      7.24603294	     -2.29349315	      0.01043877	      2.70592237	     -0.00902422	      7.31192918	      0.02184900
     22.44700000	    -11.64565805	    405.93478820	     -8.38683162	     -2.30655010	      0.01006534	      2.26889107	      0.01426996	     -7.27793614	      0.01819933	     -4.52436048	    442.44067186	      7.25840054	     -2.29357617	      0.01043875	      2.70589661	     -0.00900273	      7.29451921	      0.02179697
     22.44800000	    -11.60623014	    405.83910577	     -8.37245905	     -2.30663365	      0.01006521	      2.26890554	      0.01424245	     -7.26390913	      0.01816426	     -4.49303278	    442.45916388	      7.26819524	     -2.29365904	      0.01043872	      2.70587131	     -0.00898098	      7.27689132	      0.02174430
     22.44900000	    -11.56395084	    405.73731053	     -8.36192316	     -2.30671826	      0.01006509	      2.26892077	      0.01421488	     -7.24984567	      0.01812909	     -4.46076409	    442.47416202	      7.27536830	     -2.29374168	      0.01043869	      2.70584652	     -0.00895895	      7.25904127	      0.02169096
     22.45000000	    -11.51871545	    405.62910963	     -8.35529184	     -2.30680393	      0.01006496	      2.26893677	      0.01418722	     -7.23573718	      0.01809381	     -4.42757929	    442.48533630	      7.27989641	     -2.29382403	      0.01043867	      2.70582228	     -0.00893664	      7.24096576	      0.02163695
     22.45100000	    -11.47043954	    405.51422563	     -8.35260086	     -2.30689066	      0.01006483	      2.26895357	      0.01415944	     -7.22157244	      0.01805839	     -4.39350179	    442.49238594	      7.28177871	     -2.29390601	      0.01043863	      2.70579859	     -0.00891405	      7.22266274	      0.02158226
     22.45200000	    -11.41906109	    405.39239948	     -8.35385455	     -2.30697844	      0.01006470	      2.26897115	      0.01413153	     -7.20733763	      0.01802279	     -4.35855315	    442.49504732	      7.28103352	     -2.29398756	      0.01043860	      2.70577550	     -0.00889118	      7.20413175	      0.02152688
     22.45300000	    -11.36454239	    405.26339335	     -8.35902671	     -2.30706728	      0.01006457	      2.26898953	      0.01410345	     -7.19301646	      0.01798698	     -4.32275271	    442.49310115	      7.27769505	     -2.29406862	      0.01043857	      2.70575300	     -0.00886803	      7.18537415	      0.02147083
     22.45400000	    -11.30687166	    405.12699334	     -8.36806196	     -2.30715715	      0.01006444	      2.26900870	      0.01407517	     -7.17859038	      0.01795091	     -4.28611734	    442.48637858	      7.27180990	     -2.29414913	      0.01043854	      2.70573111	     -0.00884460	      7.16639337	      0.02141412
     22.45500000	    -11.24606433	    404.98301202	     -8.38087723	     -2.30724803	      0.01006432	      2.26902865	      0.01404664	     -7.16403880	      0.01791452	     -4.24866131	    442.47476625	      7.26343374	     -2.29422906	      0.01043850	      2.70570984	     -0.00882091	      7.14719500	      0.02135675
     22.45600000	    -11.18216405	    404.83129078	     -8.39736348	     -2.30733992	      0.01006419	      2.26904935	      0.01401781	     -7.14933938	      0.01787776	     -4.21039626	    442.45821014	      7.25262811	     -2.29430835	      0.01043847	      2.70568917	     -0.00879696	      7.12778692	      0.02129875
     22.45700000	    -11.11524320	    404.67170197	     -8.41738766	     -2.30743278	      0.01006406	      2.26907080	      0.01398866	     -7.13446833	      0.01784058	     -4.17133120	    442.43671818	      7.23945745	     -2.29438698	      0.01043843	      2.70566911	     -0.00877276	      7.10817932	      0.02124016
     22.45800000	    -11.04540304	    404.50415077	     -8.44079465	     -2.30752657	      0.01006393	      2.26909295	      0.01395911	     -7.11940081	      0.01780290	     -4.13147259	    442.41036141	      7.22398656	     -2.29446492	      0.01043839	      2.70564965	     -0.00874833	      7.08838461	      0.02118102
     22.45900000	    -10.97277342	    404.32857683	     -8.46740937	     -2.30762127	      0.01006380	      2.26911577	      0.01392914	     -7.10411133	      0.01776466	     -4.09082444	    442.37927395	      7.20627836	     -2.29454215	      0.01043835	      2.70563078	     -0.00872368	      7.06841737	      0.02112135
     22.46000000	    -10.89751200	    404.14495565	     -8.49703888	     -2.30771683	      0.01006367	      2.26913923	      0.01389867	     -7.08857416	      0.01772581	     -4.04938827	    442.34365147	      7.18639219	     -2.29461866	      0.01043831	      2.70561247	     -0.00869885	      7.04829419	      0.02106122
     22.46100000	    -10.81980308	    403.95329972	     -8.52947449	     -2.30781320	      0.01006354	      2.26916329	      0.01386767	     -7.07276386	      0.01768628	     -4.00716311	    442.30374831	      7.16438246	     -2.29469444	      0.01043827	      2.70559473	     -0.00867384	      7.02803343	      0.02100068
     22.46200000	    -10.73985608	    403.75365939	     -8.56449395	     -2.30791032	      0.01006342	      2.26918790	      0.01383609	     -7.05665571	      0.01764600	     -3.96414532	    442.25987337	      7.14029787	     -2.29476949	      0.01043823	      2.70557752	     -0.00864869	      7.00765503	      0.02093979
     22.46300000	    -10.65790361	    403.54612352	     -8.60186356	     -2.30800813	      0.01006329	      2.26921302	      0.01380387	     -7.04022628	      0.01760491	     -3.92032844	    442.21238461	      7.11418091	     -2.29484382	      0.01043819	      2.70556082	     -0.00862342	      6.98718022	      0.02087860
     22.46400000	    -10.57419927	    403.33081987	     -8.64134027	     -2.30810657	      0.01006316	      2.26923859	      0.01377099	     -7.02345385	      0.01756297	     -3.87570293	    442.16168250	      7.08606790	     -2.29491744	      0.01043815	      2.70554463	     -0.00859806	      6.96663123	      0.02081720
     22.46500000	    -10.48901523	    403.10791521	     -8.68267379	     -2.30820556	      0.01006303	      2.26926456	      0.01373739	     -7.00631892	      0.01752012	     -3.83025590	    442.10820244	      7.05598933	     -2.29499037	      0.01043810	      2.70552892	     -0.00857264	      6.94603093	      0.02075564
     22.46600000	    -10.40263946	    402.87761516	     -8.72560851	     -2.30830503	      0.01006290	      2.26929088	      0.01370305	     -6.98880462	      0.01747633	     -3.78397098	    442.05240632	      7.02397054	     -2.29506264	      0.01043806	      2.70551365	     -0.00854718	      6.92540252	      0.02069400
     22.46700000	    -10.31537288	    402.64016362	     -8.76988542	     -2.30840490	      0.01006277	      2.26931750	      0.01366794	     -6.97089705	      0.01743155	     -3.73682808	    441.99477346	      6.99003270	     -2.29513427	      0.01043801	      2.70549882	     -0.00852171	      6.90476917	      0.02063235
     22.46800000	    -10.22752612	    402.39584196	     -8.81524390	     -2.30850508	      0.01006264	      2.26934438	      0.01363204	     -6.95258563	      0.01738576	     -3.68880333	    441.93579105	      6.95419403	     -2.29520531	      0.01043797	      2.70548440	     -0.00849627	      6.88415365	      0.02057075
     22.46900000	    -10.13941619	    402.14496780	     -8.86142326	     -2.30860549	      0.01006251	      2.26937145	      0.01359533	     -6.93386332	      0.01733894	     -3.63986913	    441.87594450	      6.91647122	     -2.29527579	      0.01043793	      2.70547036	     -0.00847087	      6.86357801	      0.02050926
     22.47000000	    -10.05136294	    401.88789351	     -8.90816420	     -2.30870604	      0.01006238	      2.26939868	      0.01355781	     -6.91472674	      0.01729109	     -3.58999423	    441.81570769	      6.87688090	     -2.29534577	      0.01043788	      2.70545667	     -0.00844556	      6.84306322	      0.02044796
     22.47100000	     -9.96368531	    401.62500424	     -8.95520993	     -2.30880666	      0.01006225	      2.26942601	      0.01351947	     -6.89517630	      0.01724220	     -3.53914391	    441.75553352	      6.83544126	     -2.29541529	      0.01043783	      2.70544332	     -0.00842034	      6.82262887	      0.02038690
     22.47200000	     -9.87669758	    401.35671579	     -9.00230719	     -2.30890726	      0.01006213	      2.26945341	      0.01348034	     -6.87521615	      0.01719228	     -3.48728032	    441.69584486	      6.79217348	     -2.29548442	      0.01043779	      2.70543027	     -0.00839524	      6.80229288	      0.02032614
     22.47300000	     -9.79070551	    401.08347196	     -9.04920692	     -2.30900776	      0.01006200	      2.26948083	      0.01344041	     -6.85485412	      0.01714137	     -3.43436273	    441.63702606	      6.74710312	     -2.29555322	      0.01043774	      2.70541750	     -0.00837028	      6.78207127	      0.02026571
     22.47400000	     -9.70600255	    400.80574162	     -9.09566481	     -2.30910808	      0.01006187	      2.26950824	      0.01339972	     -6.83410151	      0.01708947	     -3.38034806	    441.57941529	      6.70026132	     -2.29562175	      0.01043769	      2.70540498	     -0.00834548	      6.76197801	      0.02020567
     22.47500000	     -9.62286616	    400.52401540	     -9.14144176	     -2.30920817	      0.01006174	      2.26953562	      0.01335830	     -6.81297291	      0.01703664	     -3.32519137	    441.52329769	      6.65168566	     -2.29569009	      0.01043765	      2.70539268	     -0.00832086	      6.74202480	      0.02014605
     22.47600000	     -9.54155426	    400.23880191	     -9.18630406	     -2.30930795	      0.01006161	      2.26956292	      0.01331617	     -6.79148586	      0.01698291	     -3.26884652	    441.46889960	      6.60142073	     -2.29575832	      0.01043760	      2.70538057	     -0.00829642	      6.72222111	      0.02008687
     22.47700000	     -9.46230194	    399.95062351	     -9.23002377	     -2.30940737	      0.01006149	      2.26959014	      0.01327337	     -6.76966056	      0.01692833	     -3.21126707	    441.41638396	      6.54951846	     -2.29582650	      0.01043755	      2.70536862	     -0.00827217	      6.70257408	      0.02002816
     22.47800000	     -9.38531844	    399.66001174	     -9.27237890	     -2.30950639	      0.01006136	      2.26961725	      0.01322996	     -6.74751947	      0.01687296	     -3.15240727	    441.36584684	      6.49603798	     -2.29589472	      0.01043750	      2.70535680	     -0.00824812	      6.68308858	      0.01996994
